<svg xmlns="http://www.w3.org/2000/svg" xmlns:xlink="http://www.w3.org/1999/xlink" width="112.377" height="107.873" viewBox="0 0 112.377 107.873">
  <defs>
    <linearGradient id="linear-gradient" x1="0.5" x2="0.5" y2="1" gradientUnits="objectBoundingBox">
      <stop offset="0" stop-color="#249d73"/>
      <stop offset="1" stop-color="#137998"/>
    </linearGradient>
    <linearGradient id="linear-gradient-2" y1="0.5" x2="1" y2="0.5" gradientUnits="objectBoundingBox">
      <stop offset="0" stop-color="#3aeaad"/>
      <stop offset="1" stop-color="#2cf"/>
    </linearGradient>
  </defs>
  <g id="Group_23" data-name="Group 23" transform="translate(0 0)">
    <g id="Group_25" data-name="Group 25">
      <path id="Path_1" data-name="Path 1" d="M164.63,94.739l4.7-.806v5.3l-4.7-.258Z" transform="translate(-139.342 -93.932)" fill="#00876d"/>
      <path id="Path_2" data-name="Path 2" d="M235.278,174.063H178.832V93.932l56.446.806Z" transform="translate(-148.844 -93.932)" fill="#00725c"/>
      <path id="Path_3" data-name="Path 3" d="M225.771,244.857c0,3.106-5.259,11.687-10.01,11.683-4.961,0-51.28-10.031-51.28-11.683,0-4.763,16.047-44.941,32.972-44.941S225.771,240.094,225.771,244.857Z" transform="translate(-139.243 -164.734)" fill="#1c3c50" opacity="0.2"/>
      <path id="Path_4" data-name="Path 4" d="M222.471,180.319l-57.841-3.305,4.322-78.672,52.5,2.6Z" transform="translate(-139.342 -96.882)" fill="#bcc4c8"/>
      <path id="Path_5" data-name="Path 5" d="M227.956,180.069l-52.883-3.615-2.245-78.949,55.68,6.113Z" transform="translate(-144.827 -96.323)" fill="#ebf0f1"/>
      <ellipse id="Ellipse_8" data-name="Ellipse 8" cx="40.219" cy="14.113" rx="40.219" ry="14.113" transform="translate(15.969 69.561)" fill="#1c3c50" opacity="0.06"/>
      <path id="Path_6" data-name="Path 6" d="M224.651,183.374,175.073,174.8l-2.245-77.3,52.375,7.766Z" transform="translate(-144.827 -96.323)" fill="#ced5d8"/>
      <path id="Path_7" data-name="Path 7" d="M216.5,182.742l-51.875-6.288,2.713-78.949,50.067,8.61Z" transform="translate(-139.342 -96.323)" fill="#7a8d8e" opacity="0.3"/>
      <path id="Path_8" data-name="Path 8" d="M215.861,185.609l-51.231-9.916V96.369l51.231,9.916Z" transform="translate(-139.342 -95.562)" fill="#00a285"/>
      <g id="Group_21" data-name="Group 21" transform="translate(38.543 26.142)">
        <path id="Path_9" data-name="Path 9" d="M214.487,174.578c0-1.389.7-2.029,2.488-1.666s2.488,1.284,2.488,2.673v5.208l7.315,1.48a2.768,2.768,0,0,1,2.488,2.673c0,1.562-1.194,1.928-2.488,1.667l-17.118-3.463v2.995l17.118,3.463a3.078,3.078,0,0,1,2.488,2.674v7.334a1.9,1.9,0,0,1-2.488,1.667l-7.315-1.48v5.208c0,1.389-.7,2.029-2.488,1.667s-2.488-1.285-2.488-2.673V198.8l-7.316-1.48a2.769,2.769,0,0,1-2.488-2.674c0-1.562,1.194-1.928,2.488-1.666l17.118,3.463v-2.995l-17.118-3.463a3.078,3.078,0,0,1-2.488-2.673v-7.335a1.9,1.9,0,0,1,2.488-1.667l7.316,1.48Z" transform="translate(-204.683 -172.811)" fill="#fff"/>
      </g>
      <ellipse id="Ellipse_9" data-name="Ellipse 9" cx="56.188" cy="21.347" rx="56.188" ry="21.347" transform="translate(0 65.179)" fill="#1c3c50" opacity="0.04"/>
      <path id="Path_10" data-name="Path 10" d="M164.63,94.739l4.7-.806v5.3l-4.7-.258Z" transform="translate(-139.342 -93.932)" fill="#00876d"/>
      <path id="Path_11" data-name="Path 11" d="M235.278,174.063H178.832V93.932l56.446.806Z" transform="translate(-148.844 -93.932)" fill="url(#linear-gradient)"/>
      <path id="Path_12" data-name="Path 12" d="M225.771,244.857c0,3.106-5.259,11.687-10.01,11.683-4.961,0-51.28-10.031-51.28-11.683,0-4.763,16.047-44.941,32.972-44.941S225.771,240.094,225.771,244.857Z" transform="translate(-139.243 -164.734)" fill="#1c3c50" opacity="0.2"/>
      <path id="Path_13" data-name="Path 13" d="M222.471,180.319l-57.841-3.305,4.322-78.672,52.5,2.6Z" transform="translate(-139.342 -96.882)" fill="#bcc4c8"/>
      <path id="Path_14" data-name="Path 14" d="M227.956,180.069l-52.883-3.615-2.245-78.949,55.68,6.113Z" transform="translate(-144.827 -96.323)" fill="#ebf0f1"/>
      <ellipse id="Ellipse_10" data-name="Ellipse 10" cx="40.219" cy="14.113" rx="40.219" ry="14.113" transform="translate(15.969 69.561)" fill="#1c3c50" opacity="0.06"/>
      <path id="Path_15" data-name="Path 15" d="M224.651,183.374,175.073,174.8l-2.245-77.3,52.375,7.766Z" transform="translate(-144.827 -96.323)" fill="#ced5d8"/>
      <path id="Path_16" data-name="Path 16" d="M216.5,182.742l-51.875-6.288,2.713-78.949,50.067,8.61Z" transform="translate(-139.342 -96.323)" fill="#7a8d8e" opacity="0.3"/>
      <path id="Path_17" data-name="Path 17" d="M215.861,185.609l-51.231-9.916V96.369l51.231,9.916Z" transform="translate(-139.342 -95.562)" fill="url(#linear-gradient-2)"/>
      <g id="Group_22" data-name="Group 22" transform="translate(38.543 26.142)">
        <path id="Path_18" data-name="Path 18" d="M214.487,174.578c0-1.389.7-2.029,2.488-1.666s2.488,1.284,2.488,2.673v5.208l7.315,1.48a2.768,2.768,0,0,1,2.488,2.673c0,1.562-1.194,1.928-2.488,1.667l-17.118-3.463v2.995l17.118,3.463a3.078,3.078,0,0,1,2.488,2.674v7.334a1.9,1.9,0,0,1-2.488,1.667l-7.315-1.48v5.208c0,1.389-.7,2.029-2.488,1.667s-2.488-1.285-2.488-2.673V198.8l-7.316-1.48a2.769,2.769,0,0,1-2.488-2.674c0-1.562,1.194-1.928,2.488-1.666l17.118,3.463v-2.995l-17.118-3.463a3.078,3.078,0,0,1-2.488-2.673v-7.335a1.9,1.9,0,0,1,2.488-1.667l7.316,1.48Z" transform="translate(-204.683 -172.811)" fill="#fff"/>
      </g>
    </g>
  </g>
</svg>
